<svg fill="none" height="50" viewBox="0 0 156 50" width="156" xmlns="http://www.w3.org/2000/svg"><g fill="#fff"><path d="m3.10839 46.0998-.41174.4117c-.2586-.2357-.6021-.3559-.95181-.333-.50905 0-.781606.278-.781606.6723-.010468.15.047296.2966.157016.3993.13299.1121.29776.1799.47106.1939l.51487.0787c.29349.0205.57341.133.79983.3214.23921.2303.36754.5528.35165.8847 0 .7936-.64243 1.2663-1.5512 1.2663-.5676.0403-1.124725-.1675-1.526772-.57l.430349-.4299c.293103.2911.696313.4431 1.108833.4183.56953 0 .88939-.2423.88939-.6665.01473-.1674-.04769-.3322-.16943-.4481-.13492-.107-.29931-.1702-.47106-.1815l-.50905-.0729c-.2997-.0287-.583494-.1492-.811851-.3458-.222154-.2171-.339627-.5195-.321405-.8297 0-.7514.545497-1.2604 1.442636-1.2604.49549-.0295.98128.1485 1.34029.4912z"/><path d="m6.6865 45.6458c.72112-.0434 1.34067.5063 1.38409 1.2275.04304.7207-.50633 1.3406-1.22746 1.3837-.05234.0031-.10429.0031-.15663 0h-.98089v1.7039h-.65483v-4.3143zm-.98089.5874v1.4364h.94483c.39662.0237.73741-.2784.76145-.675.02404-.3962-.27798-.7374-.6746-.7614-.02908-.0016-.05816-.0016-.08685 0z"/><path d="m12.7671 49.9609h-.6963l-.2966-.8665h-1.7024l-.29736.8665h-.69632l1.58108-4.3143h.5273zm-2.508-1.4236h1.3267l-.6665-1.9145z"/><path d="m16.1058 45.6458c.6792-.0582 1.277.4451 1.3352 1.124.0039.0453.0054.0907.0043.1364.0213.5374-.3381 1.0158-.8603 1.1445l.994 1.9087h-.7641l-.9088-1.8176h-.8181v1.8191h-.6544v-4.3143zm-1.0178.5874v1.3511h.9697c.3729.0438.711-.2225.7552-.5955.0442-.3734-.2221-.7114-.5955-.7556-.0531-.0062-.1066-.0062-.1597 0z"/><path d="m21.1648 47.3358 1.5454 2.624h-.7696l-1.2116-2.127-.7269.8728v1.2553h-.6544v-4.3139h.6544v2.1684l1.7633-2.1688h.7994z"/><path d="m27.1134 46.9352h-.6664c-.059-.4331-.4354-.7518-.8724-.7394-.2396-.0074-.471.0876-.6362.2617-.2179.2303-.2613.4908-.2613 1.3453 0 .8542.0427 1.1147.2613 1.345.1652.1741.3966.269.6362.2617.437.0128.8134-.3063.8724-.7394h.6664c-.1419.8627-.9568 1.4469-1.8195 1.3047-.3132-.0516-.604-.1962-.8339-.4153-.4187-.4241-.4366-.8545-.4366-1.7574 0-.903.0183-1.3326.4366-1.7567.6331-.6029 1.6353-.5781 2.2382.055.219.2303.3637.5207.4152.8344z"/><path d="m31.4858 46.0461c.4245.4241.4365.8545.4365 1.7567 0 .9025-.012 1.3333-.4365 1.7574-.6293.5812-1.5997.5812-2.2293 0-.4242-.4241-.4362-.8545-.4362-1.7574 0-.903.012-1.3326.4362-1.7567.6296-.5816 1.6-.5816 2.2293 0zm-1.7567.4117c-.2125.2303-.2547.4909-.2547 1.345 0 .8545.0422 1.1088.2547 1.3395.3532.3547.9274.3555 1.2821.0023.0008-.0008.0016-.0015.002-.0023.2182-.2245.2547-.4847.2547-1.3395 0-.8549-.0365-1.1205-.2547-1.345-.3575-.3474-.9267-.3474-1.2841 0z"/><path d="m36.7957 46.9423h-.6521c-.0663-.445-.4591-.7672-.9088-.7455-.2412-.0066-.4742.0884-.6424.2613-.2117.2303-.254.4912-.254 1.3453 0 .8545.0423 1.1151.254 1.345.1682.1733.4012.2683.6424.2617.2698.0097.5296-.1012.7091-.3028.1547-.1916.2303-.4346.2125-.6801v-.2423h-.9212v-.5559h1.5752v.6602c.0434.4416-.0965.882-.3877 1.2174-.3086.3245-.7401.5029-1.1875.4905-.416.0151-.8196-.1427-1.1151-.4362-.4187-.4242-.4365-.8545-.4365-1.7575 0-.9029.0186-1.3325.4365-1.7567.6436-.6067 1.6579-.5769 2.2646.0667.2167.2299.3606.5188.4137.8301z"/><path d="m41.9345 49.9609h-.5994l-1.9935-3.0345v3.0345h-.6541v-4.3143h.6002l1.9928 3.0345v-3.0345h.654z"/><path d="m44.6072 49.9609h-.6541v-4.3143h.6541z"/><path d="m49.3572 46.2332h-1.1871v3.7277h-.6548v-3.7262h-1.1872v-.5873h3.0291z"/><path d="m51.7365 49.9609h-.6545v-4.3143h.6545z"/><path d="m56.2944 46.0461c.4241.4241.4361.8545.4361 1.7567 0 .9025-.012 1.3333-.4361 1.7574-.6293.5812-1.5997.5812-2.2293 0-.4242-.4241-.4362-.8545-.4362-1.7574 0-.903.012-1.3326.4362-1.7567.6296-.5816 1.6-.5816 2.2293 0zm-1.7567.4117c-.2125.2303-.2551.4909-.2551 1.345 0 .8545.0426 1.1088.2551 1.3395.3532.3547.9274.3555 1.2821.0023.0008-.0008.0016-.0015.002-.0023.2182-.2245.2551-.4847.2551-1.3395 0-.8549-.0369-1.1205-.2551-1.345-.3575-.3474-.9267-.3474-1.2841 0z"/><path d="m61.8685 49.9609h-.6002l-1.9932-3.0345v3.0345h-.654v-4.3143h.5994l1.9935 3.0345v-3.0345h.6541z"/><path d="m69.3425 46.9423h-.654c-.0663-.445-.4595-.7672-.9088-.7455-.2412-.0066-.4742.0884-.6424.2613-.2117.2303-.2544.4912-.2544 1.3453 0 .8545.0427 1.1151.2544 1.345.1682.1733.4012.2683.6424.2617.2698.0097.5296-.1016.7091-.3028.1543-.1916.2303-.4346.2125-.6801v-.2423h-.9212v-.5559h1.5725v.6602c.0434.4416-.0969.882-.3877 1.2174-.3086.3245-.7401.5029-1.1879.4905-.4156.0151-.8192-.1427-1.1143-.4362-.4183-.4242-.4361-.8545-.4361-1.7575 0-.9029.0182-1.3325.4361-1.7567.6436-.6067 1.6571-.5772 2.2638.066.2171.2303.361.5191.4141.8308z"/><path d="m73.7787 46.0461c.4242.4241.4362.8545.4362 1.7567 0 .9025-.012 1.3333-.4362 1.7574-.6292.5812-1.6.5812-2.2293 0-.4241-.4241-.4361-.8545-.4361-1.7574 0-.903.012-1.3326.4361-1.7567.6293-.5816 1.6001-.5816 2.2293 0zm-1.7566.4117c-.2125.2303-.2552.4909-.2552 1.345 0 .8545.0427 1.1088.2552 1.3395.3532.3547.9273.3555 1.2821.0023.0008-.0008.0015-.0015.0019-.0023.2183-.2245.2551-.4847.2551-1.3395 0-.8549-.0364-1.1205-.2551-1.345-.3574-.3474-.9266-.3474-1.284 0z"/><path d="m75.6094 45.6458h.68l.9941 3.1443.994-3.1443h.6801l-1.4275 4.3151h-.5029z"/><path d="m83.3659 46.2332h-2.1021v1.2604h1.7935v.5878h-1.7935v1.2906h2.1021v.5889h-2.7565v-4.3143h2.7565z"/><path d="m86.8417 45.6458c.6788-.0582 1.2767.4451 1.3352 1.124.0039.0453.0055.0907.0043.1364.0213.5374-.3381 1.0158-.8603 1.1445l.994 1.9087h-.7664l-.9084-1.8176h-.8181v1.8191h-.654v-4.3143zm-1.0197.5874v1.3511h.9693c.3733.0438.7114-.2225.7556-.5955.0442-.3734-.2225-.7114-.5955-.7556-.0531-.0062-.107-.0062-.1601 0z"/><path d="m93.329 49.9609h-.5993l-1.9936-3.0345v3.0345h-.6541v-4.3143h.5998l1.9932 3.0345v-3.0345h.654z"/><path d="m99.1522 49.9609h-.6541v-2.8845l-.994 2.1029h-.4843l-1.0181-2.1029v2.8845h-.654v-4.3143h.654l1.2604 2.684 1.236-2.684h.6541z"/><path d="m103.928 46.2332h-2.102v1.2604h1.793v.5878h-1.793v1.2906h2.102v.5889h-2.756v-4.3143h2.756z"/><path d="m108.977 49.9609h-.599l-1.993-3.0345v3.0345h-.655v-4.3143h.601l1.993 3.0345v-3.0345h.654z"/><path d="m113.74 46.2332h-1.187v3.7277h-.655v-3.7262h-1.187v-.5873h3.029z"/><path d="m120.417 46.0998-.412.4117c-.258-.2357-.602-.3559-.951-.333-.509 0-.781.278-.781.6723-.011.15.047.2966.156.3993.134.1117.298.1795.471.1939l.515.0787c.294.0205.574.133.8.3214.239.2303.367.5528.351.8847 0 .7936-.642 1.2663-1.551 1.2663-.568.0403-1.125-.1675-1.527-.57l.431-.4299c.293.2911.696.4431 1.108.4183.57 0 .89-.2423.89-.6665.015-.1674-.048-.3322-.17-.4481-.134-.107-.299-.1702-.471-.1815l-.509-.0729c-.299-.0287-.583-.1496-.812-.3458-.222-.2171-.339-.5199-.321-.8297 0-.7514.546-1.2604 1.443-1.2604.495-.0295.981.1485 1.34.4912z"/><path d="m123.878 48.1822v1.7787h-.654v-1.7787l-1.29-2.5383h.715l.903 1.8962.902-1.8962h.716z"/><path d="m129.288 46.0998-.412.4117c-.259-.2357-.602-.3559-.951-.333-.509 0-.782.278-.782.6723-.011.15.047.2966.157.3993.133.1121.298.1799.471.1939l.515.0787c.294.0205.574.133.8.3214.239.2303.367.5528.351.8847 0 .7936-.642 1.2663-1.551 1.2663-.567.0403-1.125-.1675-1.527-.57l.431-.4299c.293.2911.696.4431 1.109.4183.569 0 .889-.2423.889-.6665.015-.1674-.048-.3322-.169-.4481-.135-.107-.3-.1702-.471-.1815l-.507-.0702c-.3-.0287-.584-.1492-.813-.3458-.222-.2171-.339-.5199-.321-.8297 0-.7513.546-1.2604 1.442-1.2604.495-.0299.98.1473 1.339.4885z"/><path d="m133.994 46.2332h-1.188v3.7277h-.654v-3.7262h-1.187v-.5873h3.029z"/><path d="m138.479 46.2332h-2.102v1.2604h1.794v.5878h-1.794v1.2906h2.102v.5889h-2.756v-4.3143h2.756z"/><path d="m144.086 49.9609h-.654v-2.8845l-.994 2.1029h-.485l-1.018-2.1029v2.8845h-.654v-4.3143h.654l1.261 2.684 1.235-2.684h.654z"/><path d="m148.745 46.0998-.412.4117c-.258-.2357-.602-.3559-.951-.333-.509 0-.781.278-.781.6723-.011.15.047.2966.156.3993.134.1117.298.1795.471.1939l.515.0787c.294.0205.574.133.8.3214.239.2303.367.5528.351.8847 0 .7936-.642 1.2663-1.551 1.2663-.567.0403-1.125-.1675-1.527-.57l.43-.4299c.293.2907.697.4431 1.109.4183.57 0 .889-.2423.889-.6665.015-.1674-.047-.3322-.169-.4481-.135-.107-.299-.1702-.471-.1815l-.509-.0729c-.3-.0287-.584-.1492-.812-.3458-.222-.2171-.34-.5195-.321-.8297 0-.7514.545-1.2604 1.442-1.2604.496-.0299.982.1481 1.341.4912z"/></g><path clip-rule="evenodd" d="m38.9486.0258789h-38.9486v38.9486211h38.9486zm-26.0375 21.4011211c.8723-.5087 1.8675-.7688 2.8775-.751l7.3791-.007c.5913-.0023 1.1798.0822 1.7462.2509-.1066.2435-.2477.4707-.4183.6742l-6.1738 7.3113c.0206-.1.0415-.2.0667-.2989l1.6741-6.6336h-1.6915l-1.5737 6.2323c-.2384.9976-.7452 1.9106-1.4651 2.6407l-.0206.0228c-.0198.0206-.0388.0411-.0578.0625-.027.0288-.0506.0589-.0747.0898l-.0074.0094c-.0031.004-.0061.008-.0092.0119-.0052.0066-.0104.0132-.0153.0203-.086.1167-.1582.2431-.214.3772-.007.0159-.0136.0322-.0201.0485-.0287.0729-.0528.1473-.0722.2233-.0007.0028-.0014.0055-.0022.0082-.0026.0092-.0051.0181-.0051.0271-.0159.0709-.0279.1427-.0361.2152-.0005.0046-.0011.0086-.0016.0125-.001.007-.002.0141-.003.0258-.0007.0074-.0017.0144-.0028.0214-.0015.0104-.003.0206-.003.031-.0031.031-.0021.0618-.0011.0927.0005.0155.0011.0309.0011.0465v.0818c.0042.0639.012.1279.0232.1911.0017.01.0031.0203.0045.0306.0021.0157.0043.0315.0075.0469.0121.0574.0287.114.0458.1703l.0063.021c.0074.0246.0148.0491.0235.0736.0158.0424.0343.0823.0536.1238.0044.0097.009.0194.0135.0293.0043.0089.0084.0177.0125.0266.0098.0209.0195.0419.0309.0626.0369.0666.0776.131.1218.193.0024.0029.0043.0061.0063.0093.0012.002.0024.0039.0037.0059l.0031.0038c.1726.24.4013.4339.6661.5645.0382.019.0766.0342.1151.0494.008.0032.0161.0063.0241.0096.0066.0024.0132.0053.0198.0082.0082.0036.0164.0072.0248.01.038.0136.0822.0267.1136.036s.0601.0183.0938.0272c.0341.0089.0725.0159.1047.0213l.0083.0016c.029.0055.0547.0104.089.0147.0302.004.065.0065.093.0086.0073.0005.0141.001.0202.0015.0299.0023.0601.0054.09.0054.0387.0031.0841.0015.1147 0 .0085-.0004.0166-.0007.0247-.0011.0207-.0008.0409-.0015.066-.0043.0227-.0023.0443-.0053.0666-.0084.0124-.0018.025-.0035.0381-.0052.0369-.0047.076-.0116.1047-.0174.0287-.0055.057-.0128.0853-.0202.0403-.0101.0799-.0209.1194-.0341l.0613-.0213c.0453-.0175.0903-.0349.1349-.0555l.0403-.0198c.0489-.0236.0962-.0492.1423-.0771l.0291-.0182c.0477-.0295.0942-.0613.1392-.0958l.0263-.0209c.0438-.0345.0869-.0706.1276-.1098l.0271-.0279c.0074-.0072.0148-.0144.0222-.0216.0223-.0216.0445-.0432.0654-.0668.0034-.0041.0064-.0085.0093-.0127.003-.0045.006-.0089.0093-.0129.0551-.0647.1055-.1333.1509-.205.0125-.021.0246-.0426.0368-.0641.0051-.0092.0103-.0183.0155-.0274.0287-.0535.0566-.1086.081-.1648.0048-.0113.0099-.0225.015-.0336.0082-.0178.0163-.0357.023-.054.0252-.0667.0466-.1346.064-.204.0031-.0116.0062-.0225.0062-.0337.0089-.0396.0147-.0787.0209-.1186.0101-.0617.0179-.1233.0214-.1846.0003-.0072.0015-.0143.0026-.0214.0014-.0087.0028-.0173.0028-.0263.0019-.6211.2136-1.2232.6017-1.7082l6.7402-7.9847c.4017-.4521.9441-.7557 1.5396-.8607.1081-.0202.2144-.05.3171-.0896l.0175-.0074c.0806-.0318.1589-.0694.2341-.1124.019-.0093.0361-.0178.0524-.0275.0733-.045.143-.095.2093-.1493.0252-.0205.0485-.0422.0729-.0643.0531-.0485.1039-.0997.1512-.154.0056-.0063.0116-.0119.0176-.0175.0069-.0065.0138-.013.02-.0205.3614-.4388.5017-1.0192.3804-1.5748v-.0101c-.0009-.0032-.0021-.0064-.0033-.0096-.0022-.0057-.0045-.0115-.0045-.0175-.0143-.0628-.0318-.1249-.0523-.1857-.0105-.0314-.0221-.0625-.0341-.0927-.019-.0454-.0404-.0899-.0629-.1345-.0048-.0095-.0095-.0192-.0142-.0289-.0089-.0183-.0179-.0369-.028-.0549-.0376-.0647-.0791-.1271-.1241-.1872-.0148-.0196-.0305-.038-.0464-.0567-.0049-.0057-.0099-.0115-.0148-.0174-.0314-.038-.0632-.0748-.0985-.1105-.0248-.0252-.05-.0496-.0764-.0736-.0345-.0315-.0705-.0613-.1078-.0908l-.0019-.0015c-.0269-.0216-.0542-.0435-.0826-.0632-.0535-.0376-.1093-.0725-.1682-.1047-.0058-.0032-.0114-.0067-.0171-.0103-.0064-.004-.0129-.0081-.0198-.0118l-.0116-.0066c-.2005-.1023-.4183-.1663-.6424-.188l-.0524-.0051c-.0496-.0062-.0969-.0062-.1492-.0062-.0158 0-.0313.0009-.0467.0018-.0153.0009-.0305.0017-.046.0017-.0632.0031-.1264.0093-.1892.019-.0399.0062-.0822.014-.1186.0217-.0369.0078-.0714.0148-.1047.0241-.0586.0163-.1152.0364-.171.0581-.0388.0175-.0771.0345-.1148.0524-.0185.0083-.0368.0181-.0547.0277-.0053.0028-.0106.0056-.0158.0083l-.0001.0001c-.0434.022-.0868.0441-.1282.0697-.8774.5063-1.8746.7677-2.8877.7576h-7.3725c-.592.0011-1.1806-.0861-1.747-.2578.095-.209.2183-.404.3664-.5797l6.9511-8.1394c.0036-.0044.0074-.0084.0112-.0124.0032-.0033.0064-.0066.0094-.0101l-1.9413 7.6909h1.6997l2.0044-7.9394c.1675-.59822.5331-1.12162 1.0368-1.4849.0841-.06319.1624-.13298.2341-.20936.0632-.07017.121-.14539.1726-.22448.0063-.00894.0121-.01803.0179-.02717.0038-.00592.0076-.01186.0115-.0178.1043-.16671.1815-.34893.2284-.53968.0012-.00447.0028-.0084.0044-.01244.002-.00508.0041-.01033.0057-.01703.0004-.00179.0008-.0036.0012-.00542.0024-.0104.005-.02124.005-.0318.0073-.03606.0124-.06785.0178-.10468.0054-.03644.0105-.07522.0132-.10468.0006-.00752.0012-.01502.0019-.0225.002-.02182.0039-.04347.0039-.06512v-.11748c-.0003-.00996-.001-.02039-.0018-.03102-.001-.01499-.0021-.03037-.0021-.04535-.0019-.0411-.005-.08181-.0105-.1229-.0017-.01154-.0036-.02429-.0056-.03738-.0018-.01244-.0037-.02517-.0056-.03745-.0066-.03916-.0143-.07832-.0233-.11709-.0053-.02422-.0114-.04645-.0177-.06913-.0011-.00382-.0021-.00765-.0032-.01151-.0027-.01047-.0046-.02093-.0077-.03101-.0045-.01472-.0089-.0276-.0139-.04196-.0032-.00948-.0067-.0196-.0106-.03132-.0101-.02908-.0201-.05622-.0325-.08723-.0128-.03063-.0256-.06049-.0404-.09073-.0026-.00552-.0053-.01107-.0079-.01663-.0121-.02524-.0243-.05058-.0366-.07409-.0094-.01767-.0194-.0346-.0296-.05171-.0063-.01067-.0127-.0214-.0189-.03242-.0163-.02869-.0314-.05467-.0524-.08491-.0209-.03024-.0492-.06785-.067-.08995-.0073-.00899-.0143-.01812-.0213-.02721-.0101-.01325-.0203-.02644-.0311-.03908-.0364-.04381-.076-.08452-.1163-.12484-.0034-.00327-.0066-.00673-.0098-.01024-.0033-.00356-.0066-.00718-.0103-.0107-.0512-.04885-.1051-.0946-.1617-.13763-.0056-.0042-.0117-.00818-.0179-.01223-.0058-.00381-.0117-.00767-.0174-.01181-.0419-.03024-.0833-.05971-.1279-.08607-.0039-.00243-.0076-.00507-.0113-.00769-.0051-.00363-.0101-.00721-.0155-.01014-.0129-.00764-.0263-.01376-.0396-.01984-.011-.00503-.022-.01004-.0325-.01583-.0069-.00343-.0137-.00688-.0205-.01032-.0255-.0129-.051-.02574-.0776-.03737-.0469-.02132-.0938-.04149-.1427-.05854l-.0224-.00737c-.1156-.03916-.2346-.0663-.3552-.0818-.0037-.00049-.0073-.00143-.0109-.00238-.0051-.00133-.0102-.00266-.0154-.00266h-.0062c-.0392-.00466-.078-.00892-.1171-.00892-.0671-.00349-.1342-.00349-.2009 0h-.0069c-.7739.03722-1.4392.561-1.6571 1.30462-.0006.00214-.0014.00431-.0023.00651-.0017.00457-.0035.0092-.0035.01365-.0029.01033-.0058.02069-.0088.03109-.0082.02899-.0165.05825-.0234.08793-.0039.00814-.0039.01629-.0039.0252-.0139.06553-.0248.13182-.0317.19851-.1195.89327-.5079 1.72954-1.1139 2.39678l-6.9166 8.09951c-.3939.4544-.9293.7638-1.5198.8777-.0078.0011-.0156.0021-.0234.003-.0153.0019-.0305.0038-.0456.0064-.1547.0298-.3048.0794-.4463.1477l-.007.0031c-.0612.0298-.1209.0632-.1787.0996-.019.0097-.036.0198-.0523.0306-.0524.0353-.1028.0729-.1512.1132-.0031.0023-.0064.0046-.0096.0069-.0084.0059-.0168.0119-.023.0172-.0051.0044-.0095.009-.0139.0135-.003.003-.0059.006-.009.009-.0399.0345-.0771.0705-.112.1081l-.0178.0198c-.2253.2396-.3815.5358-.4513.8572-.12371.5645.0217 1.1542.3931 1.5966l.019.0205c.0357.0415.0717.0822.1109.1198l.005.0058c.0225.0237.0462.0429.07.0622.0094.0076.0188.0152.0281.0231.0073.006.0143.0124.0213.0187.0071.0064.0141.0127.0214.0186.0511.0403.1046.0775.1597.1124.0059.0037.0124.0072.0188.0107.0048.0026.0096.0052.0141.0079.045.0268.09.0531.1365.0752.0113.0056.0225.0104.0336.0152.0092.004.0184.008.0277.0123.0384.0171.0767.0342.1163.0485.0205.0082.0449.0156.0682.0228l.0066.002c.0365.0117.0733.0229.1109.0322.0275.007.0531.0128.0799.0178.0383.0082.0771.0144.1155.0202.0078.0011.0157.0024.0236.0037.0181.003.0363.006.0547.006.0438.0043.0884.0074.1322.0074.0167.0031.0326.0031.0493.0031h.0147c.0764-.0004.1531-.0059.2291-.0159.0075-.001.0147-.0026.0217-.0041.0103-.0023.0203-.0045.0307-.0045.0647-.0104.1287-.024.1919-.0415l.0364-.01c.1656-.0485.323-.1198.4684-.2125z" fill="#3ac1cc" fill-rule="evenodd"/><path d="m47.3438 30.8793v-4.5218h6.5068v4.2461c0 1.5439.5517 2.0956 2.0404 2.0956h10.4769c1.4884 0 2.0405-.5517 2.0405-2.0956v-4.6319c0-1.7644-.7169-2.3153-2.5364-2.7015l-10.4772-2.3165c-4.6319-1.046-7.9406-2.7019-7.9406-7.9402v-5.29404c0-5.23903 2.481-7.72033357 7.7196-7.72033357h11.5252c5.239 0 7.7203 2.48130357 7.7203 7.72033357v4.13294h-6.4506v-3.85729c0-1.54383-.5513-2.09553-2.0924-2.09553h-9.71c-1.5438 0-2.0955.5517-2.0955 2.09553v4.08059c0 1.7648.7168 2.3165 2.5922 2.7573l10.4218 2.2607c4.6873 1.0464 7.9409 2.7027 7.9409 7.941v5.8446c0 5.2386-2.4813 7.7203-7.7203 7.7203h-12.2425c-5.2382 0-7.7191-2.4832-7.7191-7.7203z" fill="#fff"/><path d="m83.8516 30.8793v-23.15984c0-5.23903 2.4809-7.72033357 7.7203-7.72033357h12.8481c5.239 0 7.72 2.48130357 7.72 7.72033357v4.57684h-6.615v-4.19069c0-1.48917-.552-2.04048-2.096-2.04048h-10.8646c-1.5442 0-2.0955.55131-2.0955 2.04048v22.38749c0 1.4892.5513 2.0405 2.0955 2.0405h10.8636c1.544 0 2.095-.5513 2.095-2.0405v-6.8922h-8.2139v-5.8458h14.8339v13.1242c0 5.2386-2.482 7.7203-7.721 7.7203h-12.8501c-5.2394 0-7.7203-2.4832-7.7203-7.7203z" fill="#fff"/><path d="m120.137 30.8793v-4.5218h6.507v4.2461c0 1.5439.551 2.0956 2.04 2.0956h10.477c1.489 0 2.041-.5517 2.041-2.0956v-4.6319c0-1.7644-.717-2.3153-2.537-2.7015l-10.477-2.3165c-4.632-1.046-7.94-2.7019-7.94-7.9402v-5.29404c0-5.23903 2.481-7.72033357 7.72-7.72033357h11.525c5.238 0 7.72 2.48130357 7.72 7.72033357v4.13294h-6.453v-3.85729c0-1.54383-.551-2.09553-2.093-2.09553h-9.708c-1.544 0-2.095.5517-2.095 2.09553v4.08059c0 1.7648.717 2.3165 2.592 2.7573l10.422 2.2607c4.687 1.0464 7.941 2.7027 7.941 7.941v5.8446c0 5.2386-2.482 7.7203-7.72 7.7203h-12.243c-5.238 0-7.719-2.4832-7.719-7.7203z" fill="#fff"/><path d="m147.977.637619h1.284v3.436601h.515v-3.436601h1.289v-.460203h-3.087z" fill="#fff"/><path d="m154.606.177417-.931 2.711203c-.094.27527-.164.48347-.21.62459-.038-.12755-.101-.31946-.185-.57535l-.923-2.760443h-.775v3.896803h.497v-3.317188l1.128 3.317188h.465l1.133-3.262134v3.262134h.496v-3.896803z" fill="#fff"/></svg>